<svg xmlns="http://www.w3.org/2000/svg" role="img" viewBox="0 0 24 24" fill="currentColor">
  <title>MetaMask</title>
  <path fill="#F6851B" d="M22.271 1.568 13.8 7.87l1.562-3.694 6.909-2.608zM1.73 1.568l8.485 6.302L8.652 4.176 1.73 1.568z"/>
  <path fill="#E2761B" d="M19.9 16.27l-2.54 3.892 5.409 1.518 1.523-5.252-4.392-.158zM.708 16.428l1.523 5.252 5.409-1.518-2.54-3.892-4.392.158zM7.24 9.76 5.69 11.974l5.409.253-.423-5.832L7.24 9.76zm9.52 0-3.436-3.365-.379 5.864 5.409-.253L16.76 9.76z"/>
  <path fill="#F6851B" d="M8.447 19.9l3.118-1.521-2.64-2.074-.478 3.595zm7.106 0-.478-3.595-2.64 2.074 3.118 1.521z"/>
  <path fill="#C0AD9E" d="M17.318 14.26l-5.409.338.507 2.791.591-1.865 4.311-1.264zM6.682 14.26l4.311 1.264.591 1.865.507-2.79-5.409-.339z"/>
  <path d="M10.49 16.873 8.066 16.05l1.944 1.437.481-.614zm3.02 0 .481.614 1.944-1.437-2.425.823z"/>
  <path fill="#763D16" d="M12 12.79 9.69 14.46 12 15.582 14.31 14.46 12 12.79z"/>
</svg>

