<svg xmlns="http://www.w3.org/2000/svg" role="img" viewBox="0 0 24 24" fill="currentColor">
  <title>WalletConnect</title>
  <path fill="#3B99FC" d="M19.88 7.596a7.8 7.8 0 0 0-11.03 0l-.3.3.99.99.31-.31a6.4 6.4 0 0 1 9.06 0l.31.31.99-.99-.33-.31zm2.38 2.38-.99.99-.31-.31a6.4 6.4 0 0 0-9.06 0l-.31.31-.99-.99.3-.3a7.8 7.8 0 0 1 11.03 0l.33.3zM2.74 9.976l.99-.99.31.31a6.4 6.4 0 0 1 9.06 0l.31.31.99-.99-.3-.3a7.8 7.8 0 0 0-11.03 0l-.33.3zm18.82 1.68-2.3 2.3-1.32-1.31a4.1 4.1 0 0 0-5.78 0l-1.32 1.31-2.3-2.3 1.31-1.31.32-.31a6.4 6.4 0 0 1 9.06 0l.32.31 1.31 1.31zM6.78 13.956l1.31 1.31-2.3 2.31-3.31-3.32 2.3-2.3 1.31 1.31-.31.31z"/>
</svg>

